<?xml version="1.0" encoding="utf-8"?>
<!-- Generator: Adobe Illustrator 22.0.1, SVG Export Plug-In . SVG Version: 6.00 Build 0)  -->
<svg version="1.1" id="Calque_1" xmlns="http://www.w3.org/2000/svg" xmlns:xlink="http://www.w3.org/1999/xlink" x="0px" y="0px"
	 viewBox="0 0 432 432" style="enable-background:new 0 0 432 432;" xml:space="preserve">
<style type="text/css">
	.st0{fill:#EE724F;}
	.st1{fill:#FDCB3B;}
	.st2{fill:#36B6B1;}
	.st3{fill:#E73868;}
	.st4{fill:#F28F3F;}
	.st5{fill:#F9C528;}
	.st6{fill:#1B1B1B;}
	.st7{fill:#EA5054;}
	.st8{fill:#816C59;}
	.st9{fill:#C3AE91;}
	.st10{fill:#B4D4E1;}
	.st11{fill:#F9C8BC;}
	.st12{fill:#8FB23C;}
	.st13{fill:#EB5A58;}
	.st14{fill:#343434;}
	.st15{fill:#91CFD0;}
	.st16{fill:#FFE222;}
	.st17{fill:#B9CF48;}
	.st18{fill:#EC6284;}
	.st19{fill:#0D9380;}
	.st20{fill:#9BB581;}
	.st21{fill:#DB9EA0;}
	.st22{fill:#9A4C5F;}
	.st23{fill:#A5B449;}
	.st24{fill:#5BA645;}
	.st25{fill:#7ABA46;}
	.st26{fill:#CDCCCC;}
	.st27{fill:#EAE374;}
	.st28{fill:#10AB92;}
	.st29{fill:#A1D4C9;}
	.st30{fill:#9EB15A;}
	.st31{fill:#508CB3;}
	.st32{fill:#DE9496;}
	.st33{fill:#B3B1AB;}
	.st34{fill:#B1ADA7;}
	.st35{fill:#C1292E;}
	.st36{fill:#FDF0CE;}
	.st37{fill:#00ADA9;}
	.st38{fill:#F5A899;}
	.st39{fill:#8BCDD0;}
	.st40{fill:#00ABAB;}
	.st41{fill:#BBDCEA;}
	.st42{fill:#D49F61;}
	.st43{fill:#EC6150;}
	.st44{fill:#00A8E4;}
	.st45{fill:#95D1D4;}
	.st46{fill:#FAC4A2;}
	.st47{fill:#EB584D;}
	.st48{fill:#24211E;}
	.st49{fill:#FBC47D;}
	.st50{fill:#F28F79;}
	.st51{fill:#639BD3;}
	.st52{fill:#E8424B;}
	.st53{fill:#84B128;}
	.st54{fill:#8D715B;}
	.st55{fill:#C8B498;}
	.st56{fill:#B1DFF6;}
	.st57{fill:#3B3835;}
	.st58{fill:#F8BA00;}
	.st59{fill:#4266AE;}
	.st60{fill:#F69F28;}
	.st61{fill:#020203;}
	.st62{fill:#368DB8;}
</style>
<g>
	<g>
		<path class="st8" d="M299,338.1c-5.1,0.2-10.3,0.3-15.4,0.5c-2.4,0.1-4.8,0.2-7.2-0.5c-0.5-0.1-1-0.3-1.5-0.5
			c-3.2-1.2-4.9-3.6-5.1-7c-0.1-1.3-0.1-2.7-0.1-4c-0.2-6.1-1.5-12-3.1-17.8c-1.9-6.6-4-13.1-6-19.7c-3.4-10.9-6.2-22-9-33.1
			c-2.3-9.1-4.9-18.1-7.5-27.1c-2.3-8.4-4.8-16.9-7.9-25.1c-1.5-4-2.8-8-3.4-12.3c-0.2-1.1-0.2-2.3-0.1-3.4c0.4-2.5,2.3-3.5,4.5-2.3
			c1.1,0.6,2.1,1.5,2.9,2.5c1.5,1.8,2.5,3.9,3.3,6.1c1.4,4.2,2.8,8.5,4.1,12.7c2.9,9.6,6.5,18.9,10,28.3c4.9,13,9.8,26,14.8,39
			c2.1,5.4,4.5,10.7,7.1,15.9c3.8,7.8,8,15.5,12.9,22.8c2.7,4.1,5.6,8,8.8,11.7c1.3,1.5,2.7,3.1,3.9,4.7c0.8,1.1,1.5,2.3,1.9,3.5
			c0.7,2.2-0.2,3.9-2.4,4.5c-1.3,0.4-2.7,0.4-4.1,0.6c-0.4,0-0.8,0-1.2,0C299,338,299,338.1,299,338.1z"/>
		<path class="st12" d="M235.6,202.5c-0.2,0.6-0.4,1.1-0.5,1.7c-0.6,3.4-1.1,6.9-1.6,10.3c-0.1,0.7-0.1,1.3-0.3,2
			c-0.3,1.1-1,1.5-2.1,1c-0.9-0.4-1.7-0.9-2.6-1.3c-0.2-0.1-0.4-0.1-0.6-0.2c-0.6,0.7-0.7,1.6-0.8,2.4c-0.6,4.7-1.1,9.4-1.6,14.1
			c-0.1,0.5-0.1,1-0.2,1.5c-0.3,1-1,1.2-1.7,0.5c-0.5-0.5-1-1.2-1.4-1.8c-0.4-0.5-0.8-1-1.4-1.8c-0.5,1.6-0.9,2.9-1.2,4.2
			c-0.5,1.9-1,3.9-1.5,5.8c-0.1,0.3-0.1,0.7-0.3,1c-0.2,0.3-0.6,0.7-0.9,0.6c-0.3,0-0.7-0.5-0.7-0.8c-0.1-1,0-2,0-3.1
			c0-10.6,2.1-20.8,6.4-30.5c1.9-4.1,4.2-8,6.9-11.6c0.2-0.3,0.4-0.5,0.4-1c-0.5,0.3-1,0.5-1.4,0.9c-1.4,1.3-3,2.5-4.2,4
			c-2.4,2.9-4.6,5.9-6.8,8.9c-1.3,1.7-2.4,3.5-3.7,5.1c-1.1,1.4-1.6,1.4-3.2,0.3c-0.5,0.6-1.1,1.2-1.5,1.8c-1.7,2.2-3.3,4.5-4.9,6.7
			c-0.4,0.5-0.8,1.3-1.6,0.8c-0.8-0.5-0.3-1.2,0-1.8c2.4-5.4,4.8-10.8,7.9-15.8c3.4-5.5,7.4-10.5,12.2-14.7c0.2-0.2,0.3-0.3,0.4-0.8
			c-1.1,0.3-2.3,0.5-3.4,0.9c-1.2,0.4-2.4,0.9-3.6,1.3c-1.8,0.6-2,0.6-3.2-0.9c-0.5,0.5-1.1,1-1.6,1.4c-2,1.7-3.9,3.5-5.9,5.2
			c-0.5,0.5-1.1,1.1-1.9,0.7c-0.9-0.5-0.5-1.3-0.4-2.1c0-0.2,0.1-0.4,0.1-0.9c-0.5,0.3-0.8,0.5-1.1,0.8c-3.2,3.3-6.4,6.7-9.6,10
			c-0.2,0.2-0.4,0.5-0.6,0.7c-0.4,0.2-0.9,0.5-1.2,0.4c-0.3-0.1-0.5-0.7-0.5-1.1c0-0.8,0.2-1.5,0.3-2.3c0.1-0.5,0.1-1,0.2-1.8
			c-0.6,0.6-1.1,0.9-1.4,1.3c-2.9,2.8-5.7,5.6-8.6,8.4c-0.4,0.4-0.9,0.8-1.4,1.2c-0.5,0.4-1.2,0.8-1.8,0.2c-0.6-0.5-0.4-1.2-0.1-1.8
			c0.1-0.3,0.3-0.5,0.4-0.8c3.1-5.3,6.6-10.3,10.6-14.9c5.4-6.3,12-11.1,19.5-14.7c4-1.9,8.2-3.5,12.6-4.6c0.2-0.1,0.5-0.2,0.8-0.5
			c-1-0.2-2-0.5-3-0.6c-2.4-0.3-4.8-0.5-7.2-0.8c-0.4,0-0.7,0-1.1-0.1c-1.1-0.2-1.4-0.8-1.3-1.9c0-0.3,0.1-0.7,0.1-1.1
			c-0.3,0-0.6,0-0.9,0c-4.2,1-8.4,1.8-12.3,3.8c0,0-0.1,0-0.1,0.1c-0.8,0.3-1.6,0.8-2.3,0c-0.6-0.7-0.2-1.4,0.2-2.1
			c0.2-0.4,0.4-0.8,0.7-1.4c-0.4,0.1-0.7,0.1-0.9,0.1c-3.2,1.2-6.4,2.4-9,4.6c-0.5,0.4-1.1,0.7-1.6,0.1c-0.5-0.6-0.2-1.1,0.2-1.6
			c8.4-10.8,19.4-14.2,32.5-11.6c2.8,0.5,5.3,1.9,7.8,3.3c0.4,0.2,0.8,0.4,1.5,0.8c-0.3-0.9-0.5-1.4-0.7-2c-1.9-5.3-3-10.8-3-16.4
			c0.1-5.1,0.9-10.1,2.3-15c0.7-2.4,1.7-4.8,2.6-7.2c0.3-0.7,0.7-1.3,1.2-2c0.4-0.6,1-0.9,1.7-0.6c0.7,0.3,0.9,0.9,0.9,1.7
			c0,0.6-0.1,1.1-0.2,1.7c-0.4,4-1,7.9-1.3,11.9c-0.3,3.6,0,7.2,0.5,11.1c0.5-0.8,0.9-1.4,1.3-2c0.6-0.8,1.2-1.7,2.3-1.4
			c1.1,0.3,1.1,1.3,1.2,2.3c0.1,3.1,0,6.2,0.2,9.2c0.2,2.5,0.6,5,0.9,7.5c0.1,0.5,0.3,1.1,0.6,1.6c0.1-0.5,0.2-0.9,0.3-1.4
			c1.7-10.6,5.1-20.5,11.1-29.4c3.8-5.7,8.3-10.9,13.5-15.3c0.9-0.7,1.8-1.4,2.7-2c0.4-0.3,0.9-0.5,1.4-0.7c0.6-0.3,1.3-0.4,1.9,0.2
			c0.5,0.6,0.4,1.2,0,1.9c-0.4,0.6-0.8,1.2-1.2,1.8c-1.6,2.3-3.3,4.6-4.9,6.9c-0.9,1.3-1.5,2.7-1.9,4.3c0.4,0.1,0.7,0.2,1,0.3
			c1.3,0.4,1.7,1.1,1.2,2.3c-0.3,0.7-0.7,1.3-1.1,1.9c-1.8,2.9-3.7,5.8-5.5,8.7c-0.4,0.6-0.7,1.3-1.2,2.2c0.6-0.2,0.9-0.2,1.2-0.3
			c0.4-0.1,0.9-0.3,1.3-0.4c1.1-0.3,1.8-0.2,2.2,0.5c0.5,0.8,0.1,1.5-0.4,2.1c-2.2,3.3-4.4,6.5-6.6,9.8c-0.3,0.4-0.5,0.8-0.6,1.4
			c0.2-0.1,0.4-0.3,0.6-0.4c7.6-7.1,16.7-11.3,26.7-13.6c4-0.9,8-1.5,12.1-1.3c1.9,0.1,3.8,0.6,5.7,0.9c0.6,0.1,1.1,0.5,1.7,0.8
			c0.6,0.4,1.1,0.9,1,1.8c-0.1,0.8-0.7,1.2-1.4,1.4c-0.6,0.2-1.2,0.2-1.8,0.3c-5.1,0.7-10.3,1.3-15.2,3.2c-3.2,1.3-6.4,2.8-9.5,4.3
			c-0.3,0.1-0.6,0.4-1,0.7c0.9,0.5,1.6,0.9,2.3,1.4c0.7,0.4,1.3,0.8,1.9,1.3c0.6,0.4,1,1,0.8,1.8c-0.2,0.7-0.8,1.1-1.5,1.2
			c-0.6,0.1-1.2,0.2-1.8,0.3c-3.6,0.5-7.2,1.2-10.6,2.4c-1.7,0.6-3.3,1.3-5.3,2.2c0.7,0.3,1.1,0.5,1.4,0.6c0.5,0.2,1,0.3,1.4,0.5
			c0.7,0.3,1.4,0.8,1.3,1.7c-0.1,0.9-0.7,1.2-1.4,1.5c-4.6,1.7-8.3,4.6-11.6,8.1c-0.4,0.4-0.8,0.9-1.4,1.6c0.7,0,1,0,1.4-0.1
			c6.4-0.9,12.7-0.2,19,1.1c5.5,1.2,10.8,2.8,15.9,5.1c4.7,2.1,8.7,5,11.7,9.2c0.5,0.7,1,1.5,1.2,2.3c0.5,1.4-0.5,2.3-1.8,1.9
			c-0.6-0.2-1.1-0.5-1.7-0.7c-2.2-0.9-4.4-1.9-6.7-2.8c-1.1-0.4-2.4-0.5-3.8-0.7c0.1,0.6,0.1,1,0.2,1.4c0.3,1.1,0.6,2.2,0.8,3.3
			c0.1,0.5,0.2,1.1,0.2,1.7c0,0.8-0.1,1.6-0.9,1.9c-0.7,0.3-1.4,0-2-0.5c-0.9-0.7-1.7-1.4-2.6-2.2c-2.7-2.3-5.5-4.4-8.5-6
			c-1-0.6-2.1-1-3.2-1.5c-0.4-0.2-0.9-0.2-1.5-0.4c0.1,0.7,0.2,1.1,0.2,1.6c0.1,1.1,0.3,2.2,0.4,3.4c0.1,0.7-0.1,1.5-0.8,1.9
			c-0.8,0.4-1.4,0-2-0.5c-2-1.5-3.9-3.2-6-4.5c-2-1.3-4.1-2.2-6.2-3.3c-0.3-0.1-0.6-0.2-0.9-0.3c-2.2-0.5-2.8-0.1-2.8,2.2
			c0.1,4.9,0.6,9.7,1.4,14.5c0.1,0.7,0.2,1.4,0.2,2.1c-0.1,1.1-0.7,1.5-1.8,1.3c-0.4-0.1-0.7-0.2-1-0.3c-0.3-0.1-0.7-0.1-1.2-0.2
			c-0.1,0.4-0.2,0.8-0.3,1.2c-0.4,4.4-0.8,8.9-1.2,13.3c0,0.4,0,0.8-0.1,1.2c-0.1,0.3-0.5,0.7-0.7,0.7c-0.3,0-0.8-0.2-1-0.5
			c-0.3-0.6-0.5-1.2-0.7-1.9c-1.2-4.5-1.8-9.1-1.8-13.7c0-4.8,0.1-9.6,0.1-14.5c0-0.3,0-0.6,0-0.8
			C235.7,202.5,235.7,202.5,235.6,202.5z"/>
		<path class="st9" d="M284.8,320.6c4.5,0.1,9,0.8,13.4,1.8c7.5,1.7,15.2,2.3,22.9,2.2c5-0.1,10-0.1,14.9,0.2
			c13.7,1.1,25.2,6.7,33.9,17.4c1.9,2.3,3.7,4.8,5.4,7.3c0.8,1.2,1.5,2.5,2,3.8c1.4,3.5,0.5,6.5-2.5,8.7c-1.8,1.4-3.9,2.1-6.1,2.5
			c-3.3,0.6-6.6,0.5-9.8,0.1c-6.8-0.8-13.6-1.9-20.4-2.7c-11.1-1.4-22.1-2.5-33.3-2c-6.5,0.3-12.9,1.1-19.3,2.2
			c-9.4,1.6-18.8,2.7-28.3,2.8c-5.3,0.1-10.6-0.3-15.8-0.6c-5.2-0.3-10.3-0.7-15.5-1.1c-3.3-0.3-6.5-0.7-9.8-1.2
			c-2.9-0.5-5.4-1.8-7.7-3.6c-1.5-1.2-2.8-2.7-3.6-4.5c-1.1-2.4-1.1-4.8,0.1-7.1c1.4-2.7,3.4-4.8,6.1-6.2c2.2-1.2,4.6-2.3,7-3.1
			c3.5-1.1,7.1-1.8,10.8-2.6c6-1.3,11.9-3,17.8-5c5.9-2,11.8-4.1,17.9-5.6c3.6-0.9,7.1-1.9,10.7-2.8
			C278.7,320.8,281.7,320.6,284.8,320.6z"/>
	</g>
	<g>
		<path class="st8" d="M106.2,290.9c-3.7-0.2-7.5-0.3-11.2-0.6c-1.5-0.1-3-0.7-4.4-1.4c-2-1-2.8-2.9-2.2-5.1c0.2-1,0.6-1.9,1.1-2.9
			c0.6-1.1,1.2-2.1,1.9-3.2c6.5-9.2,11-19.3,14.7-29.9c3.5-10,6.1-20.3,8.5-30.7c3.6-15.3,7-30.6,9.5-46.1
			c1.2-7.4,2.4-14.9,3.5-22.4c0.8-5.5,1.4-11,2.2-16.5c0.3-2,0.8-4,1.6-5.9c1.1-2.9,3-3.5,5.8-2c2.1,1.1,3.3,3,3.4,5.3
			c0.1,2.1,0.1,4.3-0.1,6.4c-1.5,13.7-3,27.4-4.6,41.1c-1.4,12.8-2.9,25.6-4.3,38.4c-1.3,12-2.4,24.1-3.5,36.2
			c-0.5,5.1-0.5,10.1-0.8,15.2c-0.2,4.4-0.3,8.7-1.2,13c-0.4,1.7-0.9,3.4-1.6,5c-1.3,3.1-3.8,4.8-7.1,5.2c-2.4,0.3-4.9,0.3-7.4,0.4
			c-1.3,0.1-2.6,0-3.8,0C106.2,290.8,106.2,290.9,106.2,290.9z"/>
		<path class="st12" d="M132.9,83.7c0.5-0.4,0.8-0.6,1.2-0.8c0.9-0.5,1.8-0.2,2,0.8c0.2,0.6,0.2,1.3,0.2,2c0,2.4-0.1,4.7-0.1,7.1
			c0,0.8,0.1,1.5,0.1,2.3c0.3,0.1,0.5,0.2,0.7,0.2c1.3,0,2,0.8,2.2,2c0.2,1.2,0.4,2.3,0.4,3.5c0.1,2.4,0.2,4.8,0.3,7.2
			c0,0.6,0.1,1.1,0.1,1.8c0.5-0.2,0.8-0.2,1.1-0.4c0.9-0.9,1.9-1.7,2.7-2.7c2.8-3.4,5.6-6.8,8.8-9.8c6.5-6,14.1-9.6,22.9-10.9
			c1-0.1,2-0.3,3-0.4c0.7-0.1,1.4,0.1,1.7,0.8c0.3,0.7,0,1.2-0.5,1.6c-1.3,1-2.5,1.9-3.9,2.8c-0.9,0.6-1.9,1.2-3.1,1.9
			c0.6,0.4,1.1,0.8,1.6,1.1c1.2,0.9,1.1,2-0.2,2.6c-0.7,0.3-1.6,0.5-2.4,0.6c-3.1,0.5-6.2,1-9.3,1.5c-0.4,0.1-0.8,0.2-1.3,0.4
			c0.4,0.3,0.6,0.5,0.9,0.7c1.2,0.9,1.2,1.9,0,2.8c-0.7,0.5-1.5,0.9-2.3,1.3c-2.3,1.4-4.7,2.7-7,4.1c-0.9,0.6-1.8,1.4-2.7,2.1
			c0.1,0.1,0.1,0.2,0.2,0.3c0.5-0.2,0.9-0.4,1.4-0.6c4.3-2.2,8.8-3.9,13.5-5c4.1-1,8.3-1.3,12.5-0.6c5.3,0.8,10,3.1,13.9,6.8
			c1.7,1.6,3.2,3.3,4.8,5c0.5,0.5,0.9,1.1,0.5,1.8c-0.4,0.8-1.1,0.9-1.9,0.7c-2.1-0.5-4.3-1.1-6.4-1.6c-1-0.3-1.9-0.6-3.1-0.9
			c0.3,1,0.4,1.7,0.6,2.4c0.1,0.5,0.3,1,0.4,1.5c0.2,0.7,0.2,1.3-0.4,1.8c-0.7,0.5-1.4,0.2-2-0.3c-0.4-0.3-0.8-0.7-1.2-1
			c-4-3.1-8.6-4.9-13.7-5.9c0.5,0.6,1,1.3,1.5,1.9c0.6,0.7,1.4,1.4,0.8,2.4c-0.6,1-1.6,0.6-2.5,0.5c-4-0.4-8-0.7-12-1
			c-0.2,0-0.4,0-0.7,0c0.2,0.8,0.8,1.3,1.2,1.9c0.5,0.7,1.2,1.3,0.6,2.2c-0.5,0.8-1.3,0.5-2.1,0.5c-2.3-0.2-4.5-0.4-6.8-0.6
			c0,0.1-0.1,0.2-0.1,0.3c0.4,0.3,0.8,0.5,1.2,0.8c4.6,2.8,8.7,6.1,12.4,10.1c5.7,6,9.3,13.2,11.4,21.2c0.8,3.1,1.5,6.2,2.2,9.3
			c0.1,0.5,0.2,1.1,0.2,1.7c-0.1,1.1-1,1.5-1.9,0.8c-0.4-0.3-0.7-0.6-0.9-1c-2.2-3.2-4.4-6.4-6.6-9.7c-0.5-0.8-1.1-1.6-1.8-2.7
			c-0.4,0.9-0.7,1.6-1.1,2.3c-0.3,0.6-0.5,1.1-0.9,1.6c-0.6,0.9-1.6,0.8-2-0.3c-0.2-0.6-0.3-1.2-0.4-1.8c-1-6.3-3-12.2-5.9-17.9
			c-0.1-0.1-0.2-0.2-0.4-0.5c-0.2,0.7-0.4,1.2-0.5,1.8c-0.2,0.5-0.3,1-0.5,1.5c-0.5,1.2-1.6,1.3-2.4,0.3c-0.5-0.6-0.9-1.3-1.3-1.9
			c-0.9-1.3-1.8-2.6-2.7-3.9c-0.1-0.2-0.2-0.4-0.2-0.5c-0.1,0.1-0.2,0.2-0.3,0.3c0.2,0.4,0.3,0.8,0.5,1.2c2.4,5.5,3.7,11.3,4.4,17.2
			c0.7,6.2,0.5,12.4,0,18.6c-0.1,0.9-0.1,1.8-1.2,2.1c-0.8,0.2-1.4-0.3-1.8-1.8c-1.1-3.7-2.1-7.4-3.2-11.1c-0.2-0.8-0.4-1.5-0.7-2.6
			c-0.7,0.9-1.3,1.6-1.9,2.3c-0.4,0.5-0.9,1-1.7,0.8c-0.8-0.2-1.1-0.9-1.2-1.6c-0.1-1.1-0.2-2.3-0.1-3.4c0-4.3,0.1-8.5,0.1-12.8
			c0-0.5,0-1,0-1.5c-0.2,0-0.3,0-0.4,0c-1.6,1.1-2.6,0.7-2.7-1.2c-0.2-2.1-0.2-4.3-0.3-6.5c-0.1-1.7-0.6-3.4-1.4-5.3
			c-0.6,1.1-1.2,2-1.6,3c-0.7,1.7-1.2,3.4-1.8,5.1c-0.1,0.3-0.2,0.7-0.3,1c-0.3,0.8-0.5,1.7-1.5,1.7c-1,0-1.4-0.8-1.7-1.6
			c-0.3-0.8-0.6-1.6-1.1-2.8c-0.3,0.7-0.6,1.2-0.7,1.6c-0.6,2.7-1.3,5.4-1.8,8.1c-0.2,0.7-0.2,1.4-0.3,2.1c-0.1,0.7-0.2,1.5-1.1,1.7
			c-1,0.2-1.3-0.6-1.7-1.3c-0.3-0.6-0.6-1.1-1.2-1.7c-0.4,1.5-0.9,3-1.2,4.5c-0.5,2.5-1,5-1.5,7.5c-0.1,0.5-0.2,0.9-0.4,1.3
			c-0.2,0.7-0.5,1.3-1.3,1.3c-0.8,0.1-1.2-0.5-1.5-1.1c-0.3-0.5-0.4-1-0.7-1.5c-0.1-0.3-0.3-0.6-0.6-1.2c-0.5,0.8-0.9,1.3-1.2,1.9
			c-1.9,3.4-3.2,7.1-4.3,10.9c-0.3,0.9-0.5,1.8-0.9,2.6c-0.3,0.7-0.6,1.4-1.5,1.3c-0.9-0.1-1.2-0.8-1.4-1.5
			c-0.6-2.2-0.6-4.5-0.2-6.7c2.3-12.6,7.5-23.7,16.3-33.1c0.7-0.8,1.5-1.5,2.3-2.2c0.8-0.7,1.6-1.3,2.3-2.2c-0.3,0.1-0.7,0.2-1,0.4
			c-2.9,1.5-5.5,3.6-8,5.7c-0.6,0.5-1.2,1.1-1.9,1.6c-1.5,1.1-2.6,0.6-3-1.2c-0.1-0.2-0.1-0.5-0.1-0.9c-0.4,0.3-0.6,0.5-0.8,0.7
			c-2.5,2.9-4.9,5.8-7.4,8.7c-0.5,0.6-1,1.1-1.8,0.9c-0.8-0.2-1.2-0.8-1.4-1.5c-0.2-0.7-0.2-1.4-0.3-2.1c-0.1-0.5-0.1-1-0.1-1.8
			c-0.6,0.5-0.9,0.8-1.3,1.1c-2.2,2.1-3.9,4.7-5.5,7.2c-1.3,2.1-2.7,4.1-4,6.2c-0.3,0.4-0.6,0.8-0.9,1.2c-0.4,0.5-1,0.8-1.6,0.6
			c-0.7-0.2-1.1-0.8-1.2-1.5c-0.1-1-0.1-2,0-2.9c0.5-3.6,1.7-7,3.6-10.1c3-4.9,7-8.9,11.6-12.4c7.2-5.3,15.2-8.7,23.9-10.4
			c2-0.4,4-0.5,6-1c-0.5-0.1-1-0.3-1.5-0.4c-2.8-0.5-5.5-0.3-8.3-0.2c-0.6,0-1.2,0.1-1.8,0.1c-1.9-0.1-2.5-1.4-1.4-3
			c0.5-0.7,1.1-1.3,1.7-2.1c-1.7-0.8-3.4-1.1-5.1-1.3c-1.4-0.2-2.8-0.4-4.3-0.6c-0.8-0.1-1.5-0.3-1.8-1.2c-0.3-0.9,0.2-1.5,0.8-2
			c0.9-0.8,1.8-1.5,2.8-2.3c-0.5-0.9-1.3-1.4-2.1-1.8c-2.1-1.1-4.3-1.7-6.6-1.9c-2.4-0.2-4.8-0.4-7.2-0.6c-0.6-0.1-1.2-0.1-1.8-0.3
			c-1.4-0.5-1.8-1.9-0.7-2.9c0.6-0.6,1.3-1.1,2-1.3c1.7-0.5,3.5-1,5.2-1.2c5.4-0.6,10.5,0.7,15.3,3.1c4.7,2.4,8.7,5.8,12.5,9.4
			c0.4,0.4,0.8,0.8,1.4,1.3c-0.6-2.3-1.1-4.2-1.6-6.2c-1.3-6.1-1.5-12.2-0.7-18.4c0.5-4.4,1.3-8.7,2-13.1c0.1-0.5,0.2-0.9,0.4-1.3
			c0.2-0.3,0.6-0.7,0.9-0.6c0.4,0,0.9,0.4,1,0.7c0.3,0.5,0.3,1.1,0.4,1.6c0.6,4.4,1.1,8.8,1.7,13.1
			C132.7,82.8,132.8,83.1,132.9,83.7z"/>
		<path class="st9" d="M146.2,307.4c-6.7-0.5-13.5-1-20.3-1.5c-8.3-0.7-16.6-1.4-24.9-1.3c-5.7,0.1-11.3,0.9-16.9,2.2
			c-5.4,1.2-10.8,1.9-16.3,1.8c-2.6-0.1-5.1-0.3-7.5-1.3c-1.4-0.6-2.9-1.4-4.1-2.4c-2.1-1.6-2.6-3.9-1.8-6.4
			c0.5-1.8,1.5-3.4,2.9-4.6c1.9-1.7,3.8-3.4,5.8-4.8c7.5-5.4,15.2-10.3,23.7-14c0.8-0.4,1.6-0.9,2.4-1.3c5.9-3.4,12.1-5.8,18.9-6.4
			c8.5-0.8,16.7-0.1,24.3,4.2c2.8,1.6,5.6,3.1,8.3,4.7c5.7,3.6,11.7,6.5,17.9,9.1c3.2,1.3,6.1,3.2,8.6,5.6c1.9,1.8,3.4,3.9,4.3,6.5
			c1.2,3.5-0.1,6.4-3.5,7.7c-1.6,0.6-3.3,0.9-4.9,1.1C157.5,306.7,151.9,307,146.2,307.4z"/>
	</g>
</g>
</svg>
