<?xml version="1.0" encoding="utf-8"?>
<!-- Generator: Adobe Illustrator 21.1.0, SVG Export Plug-In . SVG Version: 6.00 Build 0)  -->
<svg version="1.1" id="Calque_1" xmlns="http://www.w3.org/2000/svg" xmlns:xlink="http://www.w3.org/1999/xlink" x="0px" y="0px"
	 viewBox="0 0 432 432" style="enable-background:new 0 0 432 432;" xml:space="preserve">
<style type="text/css">
	.st0{fill:#1A1A1A;}
	.st1{fill:#C167A6;}
	.st2{fill:#5F9D67;}
	.st3{fill:#7292A0;}
	.st4{fill:#FBB03B;}
	.st5{fill:#4D423A;}
	.st6{fill:#5D9B7C;}
	.st7{fill:#736357;}
	.st8{fill:#DDD2C0;}
	.st9{fill:#AA3C44;}
	.st10{fill:#999999;}
	.st11{fill:#333333;}
	.st12{fill:#426393;}
	.st13{fill:#EE7E8C;}
	.st14{fill:#4C3670;}
	.st15{fill:#C6863D;}
	.st16{fill:#2480BD;}
	.st17{fill:#7AB9CD;}
	.st18{fill:#9E0B16;}
	.st19{fill:#231F20;}
	.st20{fill:#FC6F7E;}
	.st21{fill:#F9B761;}
	.st22{fill:#A261C1;}
	.st23{fill:#93BA32;}
	.st24{fill:#8CC63F;}
	.st25{fill:#009245;}
	.st26{fill:#FFC46E;}
	.st27{fill:#FFD4A1;}
	.st28{fill:#E8872E;}
	.st29{fill:#EA7DA2;}
	.st30{fill:#C40E1B;}
	.st31{fill:#F7931E;}
	.st32{fill:#87AA44;}
</style>
<g>
	<g>
		<g>
			<g>
				<path class="st20" d="M54,210.2c0-0.5,0-0.7,0.1-0.9c1.4-7,3.1-14,5.8-20.6c3.4-8.1,8-15.4,13.3-22.2c3.7-4.8,8.1-8.8,12.7-12.6
					c4.1-3.4,8.4-6.5,12.9-9.2c1.1-0.6,2.2-1.2,3.3-1.8c0.1-0.1,0.2-0.1,0.5-0.1c-0.2,0.4-0.3,0.7-0.5,1c-2.2,4.2-4,8.6-5.2,13.2
					c-1.1,4.2-1.7,8.5-2,12.8c-0.2,2.1-0.3,4.2-0.3,6.3c-0.2,5.2,0.9,10.1,2.2,15c0.5,1.7,1.1,3.3,1.7,5c-0.2,0-0.4,0-0.6,0
					c-1.9-0.3-3.8-0.1-5.7,0.1c-4,0.3-8,0.8-12,1.7c-2.2,0.5-4.3,1-6.4,1.6c-3.7,1-7.1,2.4-10.5,4.3c-2.5,1.4-4.8,3-7,4.8
					C55.7,208.9,55,209.5,54,210.2z"/>
				<path class="st20" d="M119.2,186.2c-0.6,3.8-1,7.6-1,11.4c0,2.5,0.1,5.1,0.3,7.6c0.4,3.8,0.9,7.5,1.4,11.3
					c0.1,0.8-0.1,1-0.8,0.9c-3.4-0.6-6.9-0.6-10.3-0.5c-2.7,0.1-5.3,0-8,0c-5.6,0-11.1,1-16.5,2.5c-3.3,0.9-6.7,1.6-10.1,2.4
					c-2.9,0.7-5.9,1.4-8.8,2.1c-0.2,0-0.3,0.1-0.5,0.1c0.8-2.5,7.2-20.7,14-24.5c2-0.4,4-0.8,6-1.1c3.3-0.5,6.6-0.9,10-1.1
					c1.4-0.1,2.7,0,4.1,0.4c0.6,0.2,1.3,0.2,1.8,0.3c1.2-1.7,2.3-3.3,3.5-4.9c4.2-5.5,9.1-10.3,14.3-14.6c1-0.8,1.9-1.6,3-2.5
					c0,0.3,0,0.5-0.1,0.6C120.2,179.8,119.7,183,119.2,186.2z"/>
				<path class="st20" d="M211.9,124.2c-0.7,0.3-1.4,0.5-2.1,0.8c-3,1.1-5.8,2.5-8.5,4.2c-5.1,3.2-10.1,6.6-14.5,10.7
					c-4.6,4.3-8.6,9.1-11.5,14.9c-0.1,0.2-0.2,0.3-0.3,0.6c-0.2-0.3-0.4-0.6-0.6-0.8c-2.1-3.2-4.5-6.1-7.2-8.8
					c-6.2-6.2-13.5-10.7-21.3-14.4c-3.7-1.8-7.5-3.3-11.4-4.3c-0.1,0-0.1-0.1-0.3-0.2c0.3-0.2,0.5-0.3,0.7-0.4
					c7.8-4.1,16-6.9,24.6-8.2c5.3-0.8,10.6-1.2,15.9-1.1c6.5,0.1,13,0.4,19.5,1.3c5.4,0.7,10.6,2.3,15.5,4.7
					c0.6,0.3,1.1,0.6,1.6,0.9C211.9,124,211.9,124.1,211.9,124.2z"/>
				<path class="st20" d="M205.5,154c-0.1,0.1-0.2,0.2-0.3,0.3c-1.4,1.1-2.8,2.1-4.1,3.3c-4,3.6-7.3,7.9-10.1,12.6
					c-1.9,3.1-3.7,6.3-5.5,9.4c-1.5,2.6-2.8,5.2-4,8c-0.1,0.2-0.2,0.4-0.3,0.7c-0.2-0.2-0.4-0.4-0.5-0.6c-1.5-2-2.9-4.1-4.4-6
					c-4.5-5.5-9.1-10.8-14-15.9c-2.2-2.3-4.7-4.4-7.2-6.3c-0.2-0.1-0.3-0.3-0.5-0.4c0,0,0-0.1-0.1-0.2c0.3-0.1,0.6-0.2,0.9-0.3
					c3.4-0.9,6.8-1.7,10.3-1.9c2.6-0.2,5.3-0.1,7.8,0.6c0,0,0.1,0,0.1,0c1.7,0.4,1.7,0.4,2.6-1.2c1.9-3.6,4.1-6.9,6.7-9.9
					C193.8,146.6,202.3,151.8,205.5,154z"/>
			</g>
			<g>
				<path class="st21" d="M165.2,233.5c-2.2-4.8-4.5-9.6-6.6-14.5c-2.5-5.8-5.2-11.5-8-17.2c-5.3-10.8-10.7-21.5-16.1-32.3
					c-0.3-0.5-0.5-1.1-0.9-1.7c-1.2,0.7-2.3,1.3-3.4,2c0.2,0.4,0.3,0.6,0.4,0.9c3,6.1,5.9,12.1,8.9,18.2c3.8,7.9,7.6,15.8,11.2,23.9
					c5.8,12.9,11.8,25.6,17.7,38.4c1,2.1,2,4.3,3,6.4c1.2-0.8,2.6-1.5,3.9-2.1c-0.9-1.9-1.7-3.8-2.6-5.6
					C170.3,244.5,167.7,239,165.2,233.5z"/>
				<path class="st21" d="M180.3,266.3c-0.4,1.1-0.7,2.3-0.9,3.5c-0.2,1.1-0.6,2.5-0.6,3.7c2.6,5.5,5.1,11,7.7,16.5
					c1-1.5,1.8-3.1,2.6-4.7c-0.1-0.2-0.1-0.3-0.2-0.5C186,278.6,183.2,272.5,180.3,266.3z"/>
				<path class="st21" d="M198.4,305.5c-1.6-3.6-3.3-7.2-4.9-10.8c-0.9,1.5-1.5,3.2-2.5,4.7c1.4,3.1,2.8,6.1,4.3,9.2
					c0.5,1,1.1,1.3,1.9,0.8c0.9-0.5,1.3-1.4,1.7-2.3c0.1-0.2,0-0.6-0.1-0.9C198.7,306,198.5,305.8,198.4,305.5z"/>
				<path class="st21" d="M157.5,156.3c4.7-1.1,9.3-1.7,14.1-1.1c0.5,0.1,0.9,0.1,1.4,0.2c0-0.1,0.1-0.1,0.1-0.2
					c-0.9-1.3-1.8-2.6-2.8-3.9c-3.7-4.5-8-8.4-12.7-11.6c-4.8-3.3-9.9-6-15.2-8.3c-3.1-1.4-6.3-2.5-9.6-3.2
					c-0.8-0.2-1.4-0.1-2.1,0.3c-3.8,2.3-7.2,4.9-10.5,8c-0.2,0.2-0.5,0.4-0.7,0.6c-0.2-0.4-0.3-0.7-0.5-1.1
					c-0.5-1.1-0.9-2.1-1.4-3.2c-0.5-1.1-1.3-1.3-2.3-0.7c-1.4,0.9-1.7,2.2-1.1,3.8c0.4,1,0.9,1.9,1.4,3c-0.3,0-0.5,0.1-0.6,0.1
					c-3.2-0.1-6.3,0.8-9.2,1.9c-0.5,0.2-0.9,0.5-1.2,1c-0.6,1.3-1.3,2.6-2,3.9c-2.6,5.2-4.4,10.7-5.3,16.5c-0.6,4.1-1,8.2-1.1,12.4
					c-0.1,2.4-0.1,4.8,0.3,7.2c0.2,1.1,0.3,2.1,0.6,3.2c0.7,3.4,1.5,6.7,2.8,9.8c0.1,0.3,0.3,0.7,0.5,1.1c0.7-1.1,1.4-2,2-3
					c3.7-5.2,8.2-9.6,12.9-13.8c8.2-7.3,17.2-13.2,27-17.7C147.2,159.5,152.2,157.5,157.5,156.3z"/>
				<path class="st21" d="M54.9,211.3c0.2,0.2,0.4,0.3,0.6,0.4c1,0.5,1.9,1.2,2.6,2c1.5,1.8,2.9,3.7,3.8,5.9
					c0.5,1.1,1.1,2.2,1.7,3.2c1.3-3.7,6.1-16.7,11.7-22.3c-1.9,0.5-3.7,1.1-5.6,1.8C64.3,204.3,59.7,207.8,54.9,211.3z"/>
				<path class="st21" d="M213.3,125.4c-0.3,0.1-0.6,0.1-0.9,0.2c-2.3,0.9-4.6,1.7-6.8,2.9c-5.7,3-11,6.7-16,10.8
					c-2,1.7-3.9,3.5-5.6,5.4c10.2,0.8,18.1,5.2,21.6,7.6c-0.1-0.3-0.1-0.6-0.2-0.9c-0.3-2.2-0.1-4.3,0.2-6.4
					c1-6.5,3.1-12.5,7.2-17.6C213.3,126.8,213.4,126.2,213.3,125.4z"/>
				<path class="st21" d="M153.1,159.8c-0.6-0.4-1-0.5-1.6-0.2c-5.6,2-11,4.5-16.2,7.4c-0.1,0.1-0.2,0.2-0.4,0.3c5,10,10,20,15.1,30
					c3.1-1.7,6.3-2.9,9.5-4c3.2-1.1,6.5-2,9.8-3c3.3-1,6.7-1,10.2-1.5c-0.2-0.4-0.4-0.7-0.5-0.9c-1-1.3-1.8-2.7-2.9-4
					c-3.5-4.1-6.9-8.2-10.4-12.2C161.9,167.2,157.8,163.2,153.1,159.8z"/>
				<path class="st21" d="M124.5,173.9c-0.1,0.1-0.3,0.3-0.3,0.4c-0.9,2.1-1.8,4.1-2.4,6.3c-0.7,2.5-1,5.1-1.4,7.7
					c-0.6,3.6-0.8,7.1-0.7,10.7c0.1,4.4,0.5,8.9,1.1,13.3c0.1,1.1,0.3,2.2,0.5,3.5c0.3-0.3,0.6-0.4,0.8-0.6c2-1.5,3.9-3.2,6-4.6
					c2.5-1.7,5.1-3.4,7.7-5c2.4-1.5,4.9-2.8,7.4-4.2c0.2-0.1,0.4-0.3,0.6-0.4c-4.9-10.1-9.7-20.2-14.6-30.4
					C127.5,171.7,126,172.8,124.5,173.9z"/>
			</g>
		</g>
		<g>
			<path class="st10" d="M274.3,158.7c-10.4-1.3-18.7,3.7-22,9.9c-14.4-0.7-24.9,8.4-25.4,23.8c-0.1,2.2,2.5,5.3,3.4,0.2
				c2.1-12.5,16.8-19,21.5-16.9c2.8,1.2,6.2-0.1,7.8-3.1c0,0,1-2.1,1.7-3.3c3.3-6.1,12.1-7.2,18.1-5.7
				C285.6,165.3,284.4,160,274.3,158.7z"/>
			<path class="st10" d="M306.2,200c-10.7-9.8-24.5-9.5-34.7,2c-1.5,1.7-1.5,5.7,2.4,2.4c9.7-8.2,25.1-3.8,27.4,0.8
				c1.4,2.7,4.8,3.9,8,2.7c2.8-1.1,6.7-3.9,12.7-0.9c7.3,3.6,7.5,6.7,10.2,8.6C338.8,220.1,326.1,191.8,306.2,200z"/>
			<path class="st10" d="M306.4,138.9L306.4,138.9c-0.6-1.5-1.5-2.6-2.4-3.7c-0.2-0.2-0.4-0.4-0.6-0.7c-1.8-2.1-4.1-3.5-7.2-4.4
				c-2.8-0.8-5.2-0.7-7.5,0.1c-1.2-1.2-2.4-2.1-3.9-3c-4.8-2.8-9.8-2.9-14.8-0.2c-1.6,0.8-3.1,1.9-4.6,3.6c-0.9,1.1-0.7,1.8-0.2,2
				c2.7,1,7-6.4,17.5-1.3c0.9,0.5,1.9,1,2.4,2.2c0.8,1.9,3.1,2.7,5.2,2c0.3-0.1,0.6-0.2,0.9-0.4c0.3-0.1,0.6-0.3,0.9-0.4
				c0.2-0.1,0.3-0.1,0.5-0.2c0.6-0.2,1.1-0.4,1.6-0.4c1.7-0.1,3.2,0.2,4.6,1c2.3,1.3,4.1,2.8,5.3,4.7
				C306.3,143.1,307.1,140.7,306.4,138.9z"/>
		</g>
	</g>
	<g>
		<g>
			<path class="st0" d="M376.7,283c-1,0-1.8,0.4-2.2,1.2c-0.5,0.8-0.9,1.7-1.3,2.6c-1.1,2.5-2,5-3.2,7.5c-0.6,1.3-1.3,2.5-2.1,3.7
				c-0.5,0.8-1.2,1.4-1.9,2c-1,0.8-1.6,0.7-2.4-0.2c-0.8-0.8-1.3-1.8-1.7-2.9c-1.2-3.3-1.7-6.7-1.8-10.1c-0.1-2.5-0.1-5-0.1-7.5
				c0-4.5,0-9.1-0.1-13.6c0-2.7-0.2-5.4-0.4-8c-0.1-1.7-0.4-3.4-1.2-5c-0.9-1.9-2.3-3.3-4.3-3.9c-1.7-0.6-3.4-0.6-5.2-0.1
				c-2.2,0.6-4,1.9-5.7,3.6c-2,2-3.5,4.5-4.8,7c-2.1,4.2-3.5,8.7-4.4,13.3c-0.8,4.2-1.4,8.4-2,12.7c-0.1,0.8-0.2,1.7-0.4,2.5
				c-0.3-0.3-0.4-0.6-0.4-0.9c-0.5-2.2-1-4.3-1.5-6.5c-1-3.9-1.7-7.8-2.2-11.8c-0.5-4-0.8-7.9-1.3-11.9c-0.1-1.1-0.3-2.2-0.6-3.3
				c-0.4-1.4-1.3-2.4-2.8-2.8c-2.6-0.7-5,0.7-5.7,3.3c-0.3,1.3-0.4,2.6-0.5,3.9c-0.1,1.2,0,2.3,0,3.6c-1.6,1-3.2,2.1-4.9,3.2
				c-0.1-0.3-0.2-0.5-0.3-0.8c-0.6-1.7-1.1-3.5-1.8-5.2c-1.6-3.9-3.8-7.5-6.8-10.5c-3.4-3.3-7.3-5.3-12.1-5.7
				c-4.9-0.4-9.3,2-11.5,6.4c-1.5,2.9-1.9,6.1-1.3,9.3c0.7,4.4,2.7,8.2,5.8,11.4c0.4,0.4,0.5,0.7,0.4,1.2
				c-1.8,6.1-1.5,12.1,0.4,18.1c0.1,0.5,0.2,0.9,0.1,1.4c-1.3,5.2-2.5,10.5-4.2,15.7c-0.5,1.4-1.1,2.8-1.7,4.2
				c-0.1,0.3-0.4,0.6-0.7,1.1c-0.6-0.8-1.2-1.3-1.5-2c-0.7-1.3-1.4-2.7-2-4.1c-1.3-3.2-2-6.7-2.6-10.1c-0.7-4.1-1.1-8.2-1.3-12.4
				c-0.1-2.6-0.3-5.2-0.2-7.8c0.1-4.5,0.4-8.9,0.6-13.4c0-0.8,0-1.7-0.1-2.5c-0.2-1.6-1.1-2.5-2.7-2.8c-2.3-0.5-4.7,0.7-5.8,2.8
				c-0.7,1.4-0.9,2.9-1.2,4.4c-0.7,5-0.9,10.1-0.8,15.2c0,0.5,0,1.1-0.2,1.7c-1.4,3.8-2.9,7.6-4.4,11.4c-0.5,1.2-1.2,2.4-1.9,3.5
				c-0.2,0.4-0.6,0.7-0.9,1c-0.8-0.4-1.2-0.9-1.6-1.5c-0.6-1-1.2-2.1-1.7-3.2c-1.2-2.9-2-6-2.6-9.2c-1.1-5.6-1.4-11.2-1.8-16.8
				c-0.3-5.4-0.4-10.9-0.2-16.3c0.1-2.4,0.2-4.8,0.3-7.3c0.3-0.2,0.6-0.4,0.9-0.5c1.8-0.9,3.6-1.9,5.4-2.8c4.3-2.2,8.6-4.3,13.2-5.8
				c3.5-1.2,7-2,10.7-2.1c5.2-0.1,9.9,1.1,13.9,4.6c0.3,0.2,0.6,0.4,0.9,0.5c0.8,0.3,1.8-0.1,2.3-0.8c0.6-0.7,0.2-1.4-0.2-2
				c-1-1.5-2.4-2.4-4-3.2c-4.4-2.4-9.2-3.1-14.2-2.8c-4.5,0.3-8.8,1.3-13.1,2.8c-5,1.8-9.8,4-14.5,6.4c-0.3,0.2-0.6,0.3-0.9,0.4
				c0-1.4,0-2.8,0-4.1c0-1-0.2-1.9-0.7-2.8c-0.4-0.8-1.1-1.3-2-1.5c-1.6-0.3-2.9,0.1-4.1,1.2c-1.2,1.1-1.8,2.5-2.2,4.1
				c-0.5,2.2-0.9,4.5-1.1,6.8c-0.1,1.4-0.7,2-1.9,2.6c-8.5,4.1-17.3,7.2-26.7,7.9c-3.7,0.3-7.3,0.2-10.9-0.7
				c-6.6-1.6-11.6-5.3-14.6-11.5c-1.4-2.8-2.1-5.7-1.9-8.8c0.2-2.3,0.9-4.4,2.7-6c1.5-1.4,3.3-1.9,5.2-1.2c0.9,0.3,1.8,0.8,2.7,1.3
				c0.8,0.4,1.5,1,2.2,1.5c0.7,0.4,1.5,0.9,2.3,1.2c1,0.5,2,0.4,3-0.1c1.2-0.6,1.8-1.8,0.6-3.1c-1.8-1.9-3.8-3.4-6.2-4.4
				c-2.1-1-4.4-1.3-6.7-1c-5.7,0.7-10.3,5.3-10.8,11c-0.2,2.8,0.2,5.4,1,8c2.5,7.6,7.3,13,14.7,15.9c3.8,1.5,7.9,2.1,12,2.2
				c4.3,0.1,8.6-0.4,12.8-1.3c6.5-1.3,12.7-3.5,18.7-6.2c0.4-0.2,0.7-0.3,1.2-0.5c0,0.9-0.1,1.8-0.1,2.6c0,4-0.1,8,0,11.9
				c0.1,3,0.3,6,0.6,9c0.6,5.1,1.8,10.1,3.5,15c0.1,0.4,0.2,0.7,0,1.2c-1.8,5.5-3.4,11-5.3,16.5c-0.6,1.9-1.6,3.8-2.4,5.7
				c-0.2,0.4-0.5,0.7-0.8,1.2c-0.4-0.8-0.8-1.4-1.1-2.1c-1-2.1-1.6-4.3-2.2-6.6c-1-4.2-1.4-8.4-1.7-12.7c-0.4-5.8-0.5-11.6-0.2-17.4
				c0.2-2.4,0.3-4.8,0.3-7.3c0-1.1-0.1-2.1-0.3-3.2c-0.4-1.6-1.6-2.4-3.2-2.5c-1.5-0.1-2.7,0.5-3.8,1.5c-0.2,0.2-0.4,0.5-0.5,0.7
				c-0.4-0.3-0.7-0.4-1-0.6c-3.4-2-7-2.7-10.9-1.8c-3.3,0.8-6,2.7-8.1,5.3c-2.3,2.8-3.7,6-4.7,9.5c-1,3.4-1.2,6.9-1,10.5
				c0,0.4,0,0.9-0.2,1.2c-0.7,1.2-1.3,2.3-2,3.5c-0.7,1.5-1.6,2.9-2.5,4.2c-0.6,0.9-1.2,1.8-1.9,2.7c-0.7,0.9-1.4,1.8-2.2,2.5
				c-1,1-1.4,1-2.4,0c-0.3-0.3-0.5-0.5-0.7-0.8c-0.5-0.8-1.1-1.6-1.5-2.4c-1.9-3.6-2.7-7.5-3.2-11.5c-0.4-3.5-0.4-7,0.1-10.4
				c0.3-2.5,0.7-5,1.5-7.4c0.3-0.8,0.7-1.6,1.2-2.4c0.5-0.8,1.3-1,2.2-0.7c0.7,0.3,1.4,0.6,2,1c1.5,1,2.8,2.4,3.8,3.9
				c0.3,0.5,0.7,1,1.1,1.4c0.5,0.5,1.3,0.6,1.9,0.2c0.6-0.3,0.9-0.8,0.7-1.6c-0.2-0.7-0.4-1.4-0.7-2.1c-0.9-2-2.4-3.6-4.2-5
				c-3.9-3-8.9-2.8-12.7,0.4c-2.1,1.8-3.5,4-4.5,6.4c-2.4,5.9-3.1,12-1.8,18.3c0.1,0.4,0.1,0.9,0,1.3c-0.7,4.1-1.5,8.2-2.3,12.2
				c-0.5,2.4-1.1,4.8-1.7,7.2c-0.2,0.7-0.5,1.3-0.8,2.1c-0.5-0.6-0.9-1-1.2-1.4c-1-1.4-1.8-3-2.3-4.6c-2.3-6.4-3.4-13.1-4-19.8
				c-0.4-5.2-0.2-10.4,0.1-15.6c0.1-1.4,0.1-2.8,0.1-4.2c-0.1-1.6-1-2.6-2.5-3c-2.6-0.7-5.8,0.6-6.7,3.3c-0.1,0.2-0.2,0.3-0.3,0.7
				c-0.3-0.4-0.5-0.6-0.7-0.9c-1.6-1.6-3.5-3-5.5-4c-3.3-1.7-6.7-2-10.2-0.8c-4.8,1.6-8,4.8-9.9,9.4c-1.1,2.7-1.6,5.5-1.9,8.4
				c-0.4,4.8-0.1,9.5,1.5,14c1.5,4.1,3.8,7.6,7.4,10.2c1.9,1.3,3.9,2.1,6.2,2.1c3.3,0,5.8-1.6,7.5-4.5c1.9-3.2,3.4-6.5,4.7-10
				c0.1-0.3,0.3-0.6,0.4-0.9c0.2,0.3,0.2,0.6,0.2,0.8c0,0.3,0.1,0.5,0.1,0.8c0.9,6.8,3.3,13.1,7.4,18.7c0.8,1.1,1.7,2.1,2.7,3.1
				c0.8,0.8,1.8,1.5,2.8,2c2.5,1.2,5.3,0.5,7.1-1.7c0.5-0.6,0.9-1.3,1.2-2.1c0.5-1.4,1.1-2.9,1.4-4.4c0.7-3.3,1.2-6.7,1.8-10
				c0.1-0.3,0.1-0.6,0.2-1.1c0.3,0.5,0.5,0.9,0.7,1.2c1.6,2.7,3.6,5,6.2,6.8c1.3,0.9,2.8,1.6,4.4,1.7c2.4,0.2,4.4-0.8,6-2.5
				c1.5-1.5,2.6-3.3,3.6-5.2c0.9-1.7,1.8-3.4,2.7-5.1c0.1-0.2,0.3-0.4,0.5-0.7c0.2,0.5,0.3,0.8,0.4,1.1c0.9,2.7,2.3,5.1,4.2,7.2
				c0.9,1,1.9,1.8,3.1,2.5c2.9,1.6,6.1,1.1,8.4-1.2c1.1-1,1.9-2.2,2.6-3.5c1.1-2.2,2.2-4.5,3.3-6.7c0.1-0.3,0.1-0.6,0.5-0.8
				c0.4,3.5,1,6.9,2.1,10.2c1.4,4.3,3.2,8.5,5.7,12.3c0.7,1.1,1.6,2.1,2.6,3c2.2,2,4.9,1.8,6.9-0.4c0.6-0.7,1.1-1.4,1.5-2.2
				c0.7-1.4,1.3-2.9,1.8-4.4c1.5-4.7,2.9-9.4,4.4-14.1c0.1-0.3,0.2-0.7,0.4-1.2c0.3,0.5,0.5,0.9,0.7,1.2c1,1.8,2.1,3.4,3.5,4.8
				c0.8,0.8,1.6,1.6,2.6,2.2c2.8,1.9,6,1.4,8.2-1.2c0.8-1,1.5-2.1,2-3.3c0.8-1.8,1.5-3.7,2.2-5.5c0.1-0.4,0.3-0.7,0.4-1.1
				c0.2,0.4,0.3,0.7,0.3,1.1c0.7,4.2,1.7,8.2,3.2,12.2c1.3,3.3,2.8,6.6,5,9.5c1,1.4,2.2,2.7,3.6,3.7c2.6,1.8,5.6,1.4,7.6-1
				c0.7-0.8,1.3-1.8,1.7-2.8c0.8-1.9,1.5-3.8,2-5.7c0.8-3,1.4-6.1,2-9.2c0.1-0.3,0.2-0.6,0.3-1c0.6,0.9,1.1,1.7,1.7,2.4
				c1.6,2.2,3.5,4,5.9,5.2c1.6,0.8,3.2,1.1,4.9,1c2.4-0.2,4.5-1.2,6.2-2.8c1.9-1.7,3.2-3.9,4.3-6.2c3-6.6,3.8-13.6,3.3-20.7
				c-0.1-2-0.5-4-0.8-6.1c1.4-1,2.9-2,4.4-3.1c0.1,0.3,0.1,0.4,0.1,0.6c0.5,3.9,1,7.8,1.6,11.7c0.7,5,2.3,9.7,4.6,14.1
				c1.1,2.1,2.2,4.1,3.7,5.9c0.6,0.7,1.4,1.5,2.2,2c2.6,1.6,5.6,0.2,6.3-2.8c0.1-0.2,0.1-0.5,0.1-0.7c0.3-2.8,0.5-5.5,0.7-8.3
				c0.3-4.1,0.7-8.2,1.4-12.2c0.7-3.9,1.7-7.6,3.4-11.2c1.2-2.5,2.6-4.9,4.6-7c1-1,2.1-1.8,3.6-2.4c0.1,0.9,0.3,1.6,0.4,2.4
				c0.1,3,0.3,6,0.3,8.9c0.1,4.3,0,8.6,0.1,12.9c0,5.2,0.9,10.3,2.6,15.2c1,3,2.4,5.7,4.4,8.2c0.8,1,1.7,1.8,2.8,2.4
				c1.6,0.9,3.2,1.1,5,0.6c2.2-0.6,3.8-1.9,5.2-3.6c1.2-1.4,2.1-3,2.8-4.7c1.4-3,2.9-6,4.3-9c0.3-0.7,0.6-1.5,0.9-2.2
				C378.2,283.7,377.7,283,376.7,283z M144.3,276.4c0,0.3-0.1,0.5-0.2,0.8c-1.9,4.8-3.9,9.5-6.4,14c-0.9,1.7-1.9,3.3-3.4,4.6
				c-0.3,0.3-0.6,0.5-0.9,0.8c-1-0.6-1.7-1.3-2.2-2.1c-1.6-2.3-2.6-4.8-3.3-7.5c-1.6-6.8-1.7-13.6,0.5-20.3c0.4-1.2,0.9-2.3,1.5-3.3
				c0.5-0.7,1.2-1.4,1.9-1.9c0.9-0.7,2-0.9,3.1-0.6c1,0.3,2.1,0.7,3,1.2c2.5,1.3,4.5,3.2,6.4,5.2c0.2,0.2,0.3,0.6,0.3,0.9
				C144.5,270.9,144.4,273.6,144.3,276.4z M216.9,265c-0.6,3.4-0.7,6.8-0.9,10.2c0,0.4-0.1,0.8,0,1.2c0.2,2-0.3,3.8-1.2,5.6
				c-1.4,2.7-2.7,5.5-4.1,8.2c-0.7,1.4-1.7,2.7-2.7,4c-0.3,0.4-0.7,0.8-1.2,1.3c-1-1-1.7-2.1-2.2-3.3c-0.9-2.2-1.5-4.5-1.7-6.8
				c-0.2-2.2-0.4-4.5-0.4-6.7c0-4,0.7-7.9,2.3-11.6c0.5-1.1,1.1-2.1,1.7-3c1.1-1.6,2.6-2.2,4.5-2.1c2.1,0,4,0.9,5.6,2.2
				C217,264.3,216.9,264.6,216.9,265z M288.8,263.9c-0.7,0.4-1.3,1-2,1.5c0,0-0.1-0.1-0.2-0.1c-2.4-3.5-3.8-7.3-3.6-11.7
				c0.1-1.5,0.4-3,1.1-4.3c1.5-3.2,4.1-4.5,7.6-3.7c2.1,0.5,3.9,1.5,5.5,2.8c1.9,1.6,3.4,3.5,4.7,5.6c2.5,4,3.9,8.4,4.9,12.9
				c0,0.1,0,0.1,0,0.3c-3,1.8-6,3.4-9.4,3.8c-1.4,0.2-2.7,0.1-3.9-0.4c0.1-0.5,0.2-1.1,0.4-1.7c0.2-1,0.5-2.1,0.7-3.1
				c0.3-1.8-0.6-2.8-2.4-2.9C291,263,289.8,263.3,288.8,263.9z M307.5,286.7c-0.5,2.5-1.3,5-2.6,7.3c-0.6,1.1-1.3,2.1-2.2,2.9
				c-0.9,0.8-1.4,0.8-2.4,0.3c-1-0.5-1.8-1.3-2.4-2.2c-1.5-2-2.4-4.2-3.1-6.5c-1.1-3.4-1.7-6.8-1.9-10.3c-0.1-1.3,0-2.6,0.1-4
				c5.4,0.7,10.1-1.2,14.5-3.9c0.1,1,0.2,1.8,0.3,2.7C308.4,277.5,308.5,282.1,307.5,286.7z"/>
			<path class="st0" d="M94,302.6c0.9-0.9,1.4-1.8,1.9-2.8c1.4-2.7,2.4-5.6,3.2-8.6c1.9-7,3.7-14,5.6-20.9
				c3.4-12.5,6.8-25.1,10.1-37.6c0.1-0.4,0.2-0.9,0.4-1.3c0.4-0.9,1.3-1.4,2.3-1.3c1,0.1,1.4,0.7,1.3,1.7c-0.2,1-0.4,2.1-0.7,3.1
				c-1.9,8-3.8,16-5.7,24c-1.9,8.4-3.7,16.8-5.6,25.1c-1.2,5.2-2.4,10.5-4.4,15.5c-0.7,1.7-1.4,3.5-2.5,5c-1.9,2.6-4.4,3.8-7.6,3.6
				c-1.7-0.1-3.2-0.7-4.7-1.6c-2-1.2-3.6-2.8-5.1-4.6c-3.6-4.4-6.3-9.3-8.4-14.6c-2.8-7.1-4.7-14.4-6.1-21.9
				c-1.1-6.1-2.1-12.1-3.1-18.2c-0.3-2.2-0.5-4.3-0.7-6.5c-0.1-0.7,0-1.3,0-2c0.3-2.9,2.7-4.8,5.6-4.4c2,0.2,3.2,1.2,3.6,3.2
				c0.5,2.3,0.8,4.6,1.2,6.9c1.6,9.2,2.9,18.4,5.2,27.4c2,8,4.8,15.6,8.6,23c1.1,2.2,2.4,4.3,4,6.2C92.9,301.5,93.4,302,94,302.6z"
				/>
			<path class="st0" d="M264.9,250.2c-1.7,0-3-0.8-3.6-2.4c-0.2-0.5-0.4-1.1-0.5-1.7c-0.3-1.8,0.3-3.2,1.9-4.3c1-0.6,2-1.2,3.2-1.3
				c1.7-0.1,3.2,0.4,4,2c0.9,1.6,1.1,3.3,0,5C268.8,249.1,266.8,250.2,264.9,250.2z"/>
		</g>
	</g>
</g>
</svg>
